<mxfile host="www.draw.io" modified="2019-12-06T14:00:37.985Z" agent="Mozilla/5.0 (Windows NT 6.3; Win64; x64) AppleWebKit/537.36 (KHTML, like Gecko) Chrome/78.0.3904.108 Safari/537.36" etag="zvycGi8ppfVBozU4CqB2" version="12.3.7" type="github" pages="1">
  <diagram id="zScRQJx_834QTceTxE3V" name="Page-1">
    <mxGraphModel dx="868" dy="460" grid="1" gridSize="10" guides="1" tooltips="1" connect="1" arrows="1" fold="1" page="1" pageScale="1" pageWidth="850" pageHeight="1100" math="0" shadow="0">
      <root>
        <mxCell id="0"/>
        <mxCell id="1" parent="0"/>
        <mxCell id="pUL4ByYUQVUMc9SNrKHf-1" value="PatientListViewModel" style="shape=umlLifeline;perimeter=lifelinePerimeter;whiteSpace=wrap;html=1;container=1;collapsible=0;recursiveResize=0;outlineConnect=0;" vertex="1" parent="1">
          <mxGeometry x="50" y="60" width="130" height="300" as="geometry"/>
        </mxCell>
        <mxCell id="pUL4ByYUQVUMc9SNrKHf-3" value="PatientRepository" style="shape=umlLifeline;perimeter=lifelinePerimeter;whiteSpace=wrap;html=1;container=1;collapsible=0;recursiveResize=0;outlineConnect=0;size=40;" vertex="1" parent="1">
          <mxGeometry x="270" y="60" width="130" height="300" as="geometry"/>
        </mxCell>
        <mxCell id="pUL4ByYUQVUMc9SNrKHf-8" value="" style="html=1;points=[];perimeter=orthogonalPerimeter;" vertex="1" parent="pUL4ByYUQVUMc9SNrKHf-3">
          <mxGeometry x="60" y="71" width="10" height="49" as="geometry"/>
        </mxCell>
        <mxCell id="pUL4ByYUQVUMc9SNrKHf-4" value="PatienDao" style="shape=umlLifeline;perimeter=lifelinePerimeter;whiteSpace=wrap;html=1;container=1;collapsible=0;recursiveResize=0;outlineConnect=0;" vertex="1" parent="1">
          <mxGeometry x="670" y="60" width="100" height="300" as="geometry"/>
        </mxCell>
        <mxCell id="pUL4ByYUQVUMc9SNrKHf-16" value="" style="html=1;points=[];perimeter=orthogonalPerimeter;" vertex="1" parent="pUL4ByYUQVUMc9SNrKHf-4">
          <mxGeometry x="45" y="200" width="10" height="80" as="geometry"/>
        </mxCell>
        <mxCell id="pUL4ByYUQVUMc9SNrKHf-5" value="" style="endArrow=classic;html=1;" edge="1" parent="1" source="pUL4ByYUQVUMc9SNrKHf-1" target="pUL4ByYUQVUMc9SNrKHf-3">
          <mxGeometry width="50" height="50" relative="1" as="geometry">
            <mxPoint x="190" y="260" as="sourcePoint"/>
            <mxPoint x="240" y="210" as="targetPoint"/>
            <Array as="points">
              <mxPoint x="260" y="130"/>
            </Array>
          </mxGeometry>
        </mxCell>
        <mxCell id="pUL4ByYUQVUMc9SNrKHf-6" value="InsertPatientAsyncTask" style="shape=umlLifeline;perimeter=lifelinePerimeter;whiteSpace=wrap;html=1;container=1;collapsible=0;recursiveResize=0;outlineConnect=0;" vertex="1" parent="1">
          <mxGeometry x="460" y="60" width="150" height="300" as="geometry"/>
        </mxCell>
        <mxCell id="pUL4ByYUQVUMc9SNrKHf-10" value="" style="html=1;points=[];perimeter=orthogonalPerimeter;" vertex="1" parent="pUL4ByYUQVUMc9SNrKHf-6">
          <mxGeometry x="70" y="120" width="10" height="80" as="geometry"/>
        </mxCell>
        <mxCell id="pUL4ByYUQVUMc9SNrKHf-11" value="" style="html=1;points=[];perimeter=orthogonalPerimeter;" vertex="1" parent="pUL4ByYUQVUMc9SNrKHf-6">
          <mxGeometry x="80" y="150" width="10" height="40" as="geometry"/>
        </mxCell>
        <mxCell id="pUL4ByYUQVUMc9SNrKHf-12" value="self call" style="edgeStyle=orthogonalEdgeStyle;html=1;align=left;spacingLeft=2;endArrow=block;rounded=0;entryX=1;entryY=0;exitX=1;exitY=0.125;exitDx=0;exitDy=0;exitPerimeter=0;" edge="1" target="pUL4ByYUQVUMc9SNrKHf-11" parent="pUL4ByYUQVUMc9SNrKHf-6" source="pUL4ByYUQVUMc9SNrKHf-10">
          <mxGeometry relative="1" as="geometry">
            <mxPoint x="85" y="130" as="sourcePoint"/>
            <Array as="points">
              <mxPoint x="110" y="130"/>
              <mxPoint x="110" y="150"/>
            </Array>
          </mxGeometry>
        </mxCell>
        <mxCell id="pUL4ByYUQVUMc9SNrKHf-7" value="insert()" style="text;html=1;align=center;verticalAlign=middle;resizable=0;points=[];;autosize=1;" vertex="1" parent="1">
          <mxGeometry x="203" y="111" width="50" height="20" as="geometry"/>
        </mxCell>
        <mxCell id="pUL4ByYUQVUMc9SNrKHf-9" value="" style="endArrow=classic;html=1;" edge="1" parent="1" source="pUL4ByYUQVUMc9SNrKHf-3" target="pUL4ByYUQVUMc9SNrKHf-6">
          <mxGeometry width="50" height="50" relative="1" as="geometry">
            <mxPoint x="370" y="230" as="sourcePoint"/>
            <mxPoint x="520" y="180" as="targetPoint"/>
            <Array as="points">
              <mxPoint x="470" y="180"/>
            </Array>
          </mxGeometry>
        </mxCell>
        <mxCell id="pUL4ByYUQVUMc9SNrKHf-14" value="doInBackground()" style="text;html=1;align=center;verticalAlign=middle;resizable=0;points=[];;autosize=1;" vertex="1" parent="1">
          <mxGeometry x="535" y="170" width="110" height="20" as="geometry"/>
        </mxCell>
        <mxCell id="pUL4ByYUQVUMc9SNrKHf-15" value="" style="endArrow=classic;html=1;" edge="1" parent="1">
          <mxGeometry width="50" height="50" relative="1" as="geometry">
            <mxPoint x="540" y="259" as="sourcePoint"/>
            <mxPoint x="719.5" y="259" as="targetPoint"/>
            <Array as="points">
              <mxPoint x="580" y="259"/>
              <mxPoint x="630" y="259"/>
              <mxPoint x="670" y="259"/>
            </Array>
          </mxGeometry>
        </mxCell>
        <mxCell id="pUL4ByYUQVUMc9SNrKHf-17" value="execute()" style="text;html=1;align=center;verticalAlign=middle;resizable=0;points=[];;autosize=1;" vertex="1" parent="1">
          <mxGeometry x="402.5" y="160" width="70" height="20" as="geometry"/>
        </mxCell>
        <mxCell id="pUL4ByYUQVUMc9SNrKHf-18" value="insert()" style="text;html=1;align=center;verticalAlign=middle;resizable=0;points=[];;autosize=1;" vertex="1" parent="1">
          <mxGeometry x="628" y="242" width="50" height="20" as="geometry"/>
        </mxCell>
      </root>
    </mxGraphModel>
  </diagram>
</mxfile>
